<svg xmlns="http://www.w3.org/2000/svg" xmlns:xlink="http://www.w3.org/1999/xlink" version="1.1" x="0px" y="0px" viewBox="6.229 26.542 499.541 573.6475" style="enable-background:new 6.229 26.542 499.541 458.918;" xml:space="preserve"><g><path d="M458.248,367.416h-11.776v-11.211c0-5.522-4.478-10-10-10h-11.507l-0.017-83.906c0-2.184-0.289-4.331-0.859-6.383   l-41.003-153.191c-0.097-0.361-0.213-0.712-0.347-1.054c-1.854-5.861-5.901-10.893-11.177-13.884l-98.959-57.23   c-5.858-3.819-13.07-4.985-19.9-3.185L139.277,57.8c-0.387,0.104-0.765,0.231-1.132,0.379c-5.852,1.876-10.728,5.804-13.816,11.159   l-42.48,73.641c-1.436,2.169-2.521,4.578-3.247,7.232c-3.469,13.106,4.354,26.645,17.459,30.187l88.046,23.6v29.529   c-20.183-10.771-41.314-19.288-61.605-24.692c-22.509-5.995-53.813-10.772-75.12,0.52c-13.213,7.002-20.197,18.922-20.197,34.47   v24.768l-6.265-3.327c-3.88-2.061-8.649-1.348-11.756,1.757c-3.108,3.104-3.827,7.872-1.772,11.754l12.763,24.109l-12.763,24.11   c-2.055,3.883-1.336,8.65,1.772,11.755c3.107,3.103,7.877,3.816,11.756,1.756l6.266-3.327v45.705   c0,24.942,20.277,45.234,45.201,45.234h19.721c6.529,32.658,35.395,57.342,69.919,57.342c34.505,0,63.355-24.684,69.88-57.342   h19.507c23.974,0,43.403-19.144,45.196-44.53c0-0.001,0-0.003,0-0.005c1.751-24.97-5.966-50.074-22.936-74.618   c-10.608-15.341-24.916-30.346-41.988-44.14c3.633-16.951,3.017-43.949,2.084-68.561c-0.181-4.771-0.337-8.893-0.337-11.189   c0-11.502-8.109-21.586-19.327-24.095l-74.335-19.926l22.059-38.252l93.83-25.159l82.447,47.65l37.533,140.195v80.716h-15.346   c-5.522,0-10,4.478-10,10v11.211h-11.775c-5.522,0-10,4.478-10,10v34.961c0,5.522,4.478,10,10,10h119.729c5.522,0,10-4.478,10-10   v-34.961C468.248,371.894,463.771,367.416,458.248,367.416z M49.649,298.22c-1.541,2.92-1.541,6.412,0,9.332   c-0.154-0.081-0.314-0.14-0.471-0.212c-2.453-1.134-5.246-1.239-7.752-0.281c-0.382,0.146-0.757,0.316-1.122,0.51l0.002-0.004   c1.549-2.927,1.549-6.431,0-9.357l-0.002-0.003l0.001,0c1.049,0.557,2.174,0.906,3.319,1.064c0.05,0.007,0.099,0.021,0.15,0.028   c0.248,0.03,0.497,0.035,0.746,0.046c0.152,0.007,0.303,0.028,0.456,0.028c0.103,0,0.205-0.015,0.308-0.018   C46.785,299.308,48.28,298.94,49.649,298.22z M162.026,465.461c-27.262,0-49.616-21.397-51.209-48.295   c-0.016-0.278-0.03-0.573-0.044-0.884c-0.031-0.726-0.055-1.453-0.055-2.186c0.001-28.302,23.018-51.327,51.309-51.327   c28.271,0,51.27,23.025,51.27,51.327C213.296,442.419,190.296,465.461,162.026,465.461z M276.658,382.181   c-1.044,14.787-11.896,25.938-25.245,25.938h-18.365c-0.019-0.227-0.052-0.449-0.073-0.675c-0.05-0.542-0.111-1.08-0.174-1.618   c-0.073-0.628-0.15-1.254-0.239-1.876c-0.076-0.532-0.16-1.061-0.248-1.589c-0.103-0.621-0.213-1.239-0.332-1.854   c-0.101-0.521-0.208-1.039-0.32-1.556c-0.133-0.613-0.274-1.223-0.423-1.83c-0.125-0.509-0.253-1.016-0.388-1.521   c-0.163-0.606-0.336-1.208-0.514-1.807c-0.147-0.495-0.296-0.989-0.453-1.48c-0.193-0.6-0.398-1.194-0.606-1.788   c-0.168-0.479-0.335-0.957-0.513-1.431c-0.224-0.596-0.461-1.185-0.7-1.773c-0.186-0.459-0.37-0.919-0.566-1.373   c-0.256-0.595-0.528-1.181-0.799-1.767c-0.202-0.436-0.399-0.874-0.61-1.305c-0.292-0.597-0.6-1.183-0.907-1.77   c-0.213-0.407-0.42-0.818-0.641-1.221c-0.334-0.609-0.686-1.205-1.037-1.803c-0.216-0.368-0.424-0.741-0.647-1.105   c-0.396-0.647-0.811-1.28-1.226-1.913c-0.197-0.301-0.385-0.608-0.587-0.906c-0.54-0.797-1.101-1.578-1.672-2.351   c-0.091-0.124-0.176-0.253-0.269-0.376c-0.675-0.902-1.37-1.786-2.085-2.654c-0.117-0.142-0.242-0.277-0.36-0.418   c-0.597-0.713-1.201-1.419-1.825-2.108c-0.244-0.269-0.5-0.527-0.748-0.793c-0.511-0.548-1.022-1.096-1.55-1.627   c-0.299-0.301-0.61-0.59-0.915-0.886c-0.494-0.48-0.988-0.961-1.496-1.427c-0.334-0.306-0.678-0.601-1.018-0.901   c-0.495-0.437-0.989-0.874-1.496-1.297c-0.363-0.303-0.734-0.594-1.103-0.89c-0.501-0.402-1.002-0.803-1.513-1.191   c-0.386-0.293-0.779-0.575-1.171-0.86c-0.511-0.371-1.022-0.741-1.543-1.099c-0.406-0.279-0.818-0.549-1.23-0.82   c-0.522-0.343-1.046-0.683-1.577-1.013c-0.424-0.263-0.853-0.519-1.283-0.773c-0.534-0.316-1.07-0.627-1.613-0.929   c-0.44-0.245-0.884-0.485-1.33-0.721c-0.547-0.29-1.098-0.573-1.653-0.849c-0.454-0.226-0.911-0.447-1.37-0.663   c-0.561-0.264-1.125-0.518-1.694-0.768c-0.467-0.205-0.935-0.407-1.408-0.602c-0.574-0.237-1.154-0.464-1.735-0.686   c-0.478-0.183-0.956-0.365-1.439-0.538c-0.589-0.211-1.184-0.409-1.781-0.604c-0.486-0.159-0.971-0.32-1.462-0.469   c-0.606-0.184-1.219-0.353-1.832-0.522c-0.491-0.135-0.98-0.273-1.475-0.398c-0.626-0.158-1.259-0.297-1.891-0.438   c-0.492-0.11-0.983-0.225-1.479-0.324c-0.652-0.13-1.311-0.24-1.969-0.353c-0.485-0.083-0.968-0.174-1.456-0.247   c-0.695-0.104-1.397-0.184-2.098-0.268c-0.46-0.055-0.917-0.121-1.38-0.167c-0.783-0.078-1.574-0.128-2.364-0.18   c-0.388-0.026-0.773-0.065-1.163-0.084c-1.184-0.059-2.374-0.091-3.573-0.091c-1.199,0-2.39,0.032-3.575,0.091   c-0.39,0.019-0.774,0.059-1.163,0.084c-0.791,0.052-1.583,0.103-2.367,0.181c-0.462,0.046-0.918,0.112-1.378,0.167   c-0.702,0.084-1.406,0.164-2.102,0.268c-0.488,0.073-0.969,0.164-1.453,0.247c-0.66,0.113-1.32,0.223-1.973,0.353   c-0.495,0.099-0.984,0.214-1.475,0.323c-0.635,0.141-1.27,0.281-1.898,0.439c-0.493,0.124-0.98,0.262-1.469,0.396   c-0.616,0.169-1.232,0.339-1.841,0.524c-0.488,0.148-0.97,0.308-1.454,0.467c-0.6,0.197-1.199,0.396-1.792,0.608   c-0.479,0.171-0.954,0.352-1.428,0.533c-0.586,0.224-1.17,0.452-1.749,0.691c-0.468,0.193-0.932,0.394-1.396,0.597   c-0.574,0.251-1.144,0.508-1.709,0.774c-0.455,0.214-0.906,0.432-1.355,0.655c-0.562,0.279-1.119,0.565-1.673,0.858   c-0.44,0.233-0.877,0.469-1.312,0.711c-0.55,0.306-1.094,0.621-1.636,0.942c-0.423,0.25-0.844,0.501-1.262,0.76   c-0.541,0.335-1.074,0.681-1.605,1.03c-0.403,0.265-0.807,0.529-1.204,0.802c-0.531,0.365-1.053,0.742-1.574,1.12   c-0.382,0.278-0.766,0.553-1.142,0.839c-0.524,0.397-1.036,0.807-1.548,1.218c-0.357,0.287-0.718,0.569-1.07,0.863   c-0.522,0.435-1.031,0.885-1.54,1.335c-0.325,0.287-0.655,0.569-0.975,0.862c-0.529,0.485-1.043,0.985-1.558,1.486   c-0.284,0.276-0.574,0.545-0.853,0.826c-0.558,0.561-1.099,1.139-1.638,1.719c-0.219,0.236-0.446,0.464-0.663,0.702   c-0.678,0.748-1.337,1.513-1.983,2.289c-0.067,0.08-0.138,0.157-0.205,0.237c-0.722,0.875-1.423,1.767-2.104,2.676   c-0.032,0.043-0.062,0.089-0.094,0.132c-0.634,0.851-1.251,1.716-1.847,2.596c-0.172,0.255-0.333,0.518-0.502,0.774   c-0.446,0.676-0.889,1.354-1.312,2.046c-0.204,0.333-0.394,0.675-0.592,1.012c-0.37,0.628-0.74,1.256-1.091,1.896   c-0.208,0.379-0.402,0.766-0.603,1.149c-0.321,0.612-0.642,1.223-0.946,1.845c-0.2,0.41-0.388,0.827-0.581,1.242   c-0.282,0.607-0.563,1.214-0.829,1.83c-0.188,0.436-0.364,0.877-0.543,1.317c-0.247,0.608-0.492,1.216-0.724,1.832   c-0.171,0.456-0.332,0.917-0.494,1.378c-0.215,0.611-0.426,1.223-0.624,1.842c-0.152,0.475-0.296,0.953-0.439,1.431   c-0.183,0.615-0.361,1.233-0.528,1.855c-0.132,0.491-0.257,0.984-0.378,1.479c-0.152,0.621-0.297,1.245-0.433,1.872   c-0.109,0.505-0.214,1.011-0.312,1.52c-0.122,0.627-0.233,1.257-0.338,1.89c-0.086,0.517-0.169,1.036-0.243,1.557   c-0.091,0.633-0.169,1.269-0.243,1.907c-0.061,0.529-0.121,1.059-0.171,1.592c-0.021,0.229-0.054,0.455-0.074,0.685H72.386   c-13.896,0-25.201-11.32-25.201-25.234v-53.994l21.855,11.615c0.018,0.01,0.038,0.016,0.056,0.025   c0.306,0.16,0.618,0.298,0.933,0.424c0.095,0.038,0.19,0.075,0.286,0.11c0.329,0.12,0.661,0.228,0.997,0.312   c0.047,0.012,0.095,0.019,0.143,0.03c0.303,0.071,0.608,0.125,0.915,0.167c0.098,0.014,0.196,0.027,0.295,0.038   c0.34,0.036,0.68,0.06,1.021,0.061c0.015,0,0.03,0.003,0.045,0.003c0.077,0,0.154-0.009,0.231-0.011   c0.202-0.005,0.404-0.012,0.606-0.029c0.117-0.01,0.233-0.024,0.35-0.038c0.181-0.022,0.361-0.048,0.541-0.079   c0.117-0.02,0.233-0.041,0.349-0.066c0.189-0.04,0.377-0.088,0.564-0.139c0.1-0.027,0.2-0.051,0.299-0.081   c0.276-0.085,0.55-0.18,0.819-0.289c0.062-0.025,0.122-0.056,0.184-0.083c0.212-0.091,0.422-0.187,0.628-0.293   c0.099-0.051,0.195-0.106,0.292-0.16c0.168-0.093,0.333-0.19,0.496-0.294c0.099-0.063,0.198-0.128,0.295-0.194   c0.163-0.112,0.322-0.23,0.479-0.352c0.086-0.067,0.172-0.13,0.256-0.2c0.213-0.177,0.42-0.364,0.621-0.561   c0.019-0.019,0.04-0.034,0.059-0.053c0.583-0.582,1.082-1.223,1.494-1.905c1.787-2.956,1.949-6.696,0.279-9.852l-12.763-24.11   l12.763-24.109c2.055-3.883,1.336-8.651-1.772-11.755c-3.108-3.105-7.878-3.814-11.758-1.755l-20.68,10.99l-1.177,0.626v-33.057   c0-8.003,3.039-13.341,9.562-16.798c21.483-11.384,77.879-0.778,132.162,32.216c0.002,0.001,0.003,0.002,0.004,0.003   c1.034,0.628,2.061,1.262,3.081,1.898c0.087,0.054,0.174,0.108,0.26,0.162c0.887,0.555,1.766,1.113,2.64,1.672   c0.203,0.13,0.407,0.259,0.61,0.39c0.742,0.478,1.475,0.957,2.207,1.437c0.288,0.189,0.576,0.375,0.863,0.565   c0.968,0.64,1.927,1.282,2.872,1.924c0.063,0.043,0.127,0.088,0.19,0.131c1.22,0.83,2.419,1.666,3.613,2.504   c0.693,0.488,1.385,0.979,2.077,1.476c0.426,0.305,0.848,0.613,1.271,0.919c1.877,1.364,3.75,2.753,5.606,4.172   c0.01,0.008,0.022,0.014,0.032,0.021C256.54,308.921,279.132,346.856,276.658,382.181z M356.355,116.122   c-0.687-2.562-2.36-4.745-4.656-6.072l-89.621-51.797c-2.297-1.328-5.03-1.687-7.594-1L152.647,84.558   c-2.563,0.687-4.748,2.365-6.073,4.663l-30.634,53.124c-1.553,2.692-1.765,5.953-0.575,8.824s3.647,5.026,6.648,5.831   l87.143,23.359c0.175,0.047,0.351,0.089,0.528,0.126c2.172,0.458,3.749,2.388,3.749,4.59c0,2.675,0.155,6.767,0.352,11.947   c0.506,13.354,1.422,37.527-0.234,54.318c-0.286-0.195-0.57-0.39-0.855-0.583c-0.007-0.005-0.013-0.009-0.02-0.014   c-0.03-0.02-0.061-0.04-0.091-0.06c-1.586-1.077-3.21-2.15-4.854-3.22c-0.38-0.247-0.763-0.49-1.144-0.736   c-0.826-0.532-1.644-1.067-2.481-1.596v-48.807c0-4.526-3.04-8.487-7.411-9.659l-95.437-25.581   c-2.494-0.674-3.984-3.256-3.344-5.678c0.149-0.546,0.375-1.049,0.654-1.452c0.152-0.221,0.296-0.448,0.43-0.681l42.654-73.943   c0.798-1.383,1.984-1.948,2.838-2.178c0.294-0.079,0.583-0.171,0.865-0.276l112.488-30.179c1.83-0.483,3.229,0.202,3.899,0.653   c0.19,0.129,0.386,0.251,0.586,0.367l99.293,57.423c1.026,0.582,1.791,1.581,2.101,2.741c0.075,0.286,0.164,0.566,0.264,0.84   l40.795,152.413c0.011,0.04,0.022,0.081,0.033,0.121c0.09,0.317,0.133,0.658,0.133,1.044l0.018,83.903h-9.325v-82.03   c0-0.873-0.114-1.742-0.34-2.586L356.355,116.122z M370.294,366.205h56.178v1.211h-56.178V366.205z M448.248,402.377h-99.729   v-14.961h11.775h76.178h11.776V402.377z"/><path d="M162.026,368.002c-25.417,0-46.096,20.678-46.098,46.094c0,25.438,20.679,46.133,46.098,46.133   c25.398,0,46.061-20.695,46.061-46.133C208.087,388.68,187.424,368.002,162.026,368.002z M162.026,440.229   c-14.39,0-26.098-11.723-26.098-26.132c0-14.389,11.708-26.095,26.098-26.095c14.37,0,26.061,11.706,26.061,26.094   C188.087,428.506,176.396,440.229,162.026,440.229z"/><path d="M348.243,233.511c0-4.39-2.863-8.267-7.059-9.558l-26.039-8.012l-8.005-26.067c-1.29-4.199-5.168-7.064-9.56-7.064   c-0.001,0-0.002,0-0.003,0c-4.393,0.001-8.271,2.869-9.558,7.069l-7.989,26.062l-26.054,8.012   c-4.196,1.291-7.061,5.167-7.061,9.558s2.864,8.268,7.061,9.558l26.054,8.012l7.989,26.064c1.287,4.2,5.165,7.068,9.558,7.069   c0.001,0,0.002,0,0.003,0c4.392,0,8.271-2.866,9.56-7.064l8.005-26.069l26.039-8.013   C345.38,241.778,348.243,237.901,348.243,233.511z M304.2,233.524c-3.158,0.972-5.632,3.441-6.61,6.597   c-0.979-3.156-3.453-5.626-6.612-6.598l-0.04-0.013l0.04-0.012c3.159-0.972,5.634-3.441,6.612-6.598   c0.978,3.156,3.452,5.625,6.61,6.597l0.042,0.013L304.2,233.524z"/><path d="M498.71,89.228l-26.039-8.01l-8.005-26.069c-1.289-4.198-5.167-7.064-9.56-7.064c-4.392,0-8.27,2.866-9.56,7.064   l-8.007,26.07l-26.038,8.01c-4.198,1.292-7.062,5.171-7.06,9.563s2.87,8.269,7.069,9.556l26.028,7.977l8.006,26.098   c1.289,4.2,5.168,7.067,9.561,7.067c4.394,0,8.272-2.868,9.561-7.068l8.004-26.097l26.028-7.977c4.2-1.287,7.068-5.164,7.07-9.556   S502.908,90.52,498.71,89.228z M455.106,105.386l-0.001,0.003l-0.001-0.004c-0.97-3.161-3.438-5.638-6.595-6.618   c3.155-0.979,5.623-3.455,6.594-6.614l0.002-0.007l0.002,0.007c0.971,3.159,3.438,5.635,6.594,6.614   C458.545,99.748,456.076,102.225,455.106,105.386z"/></g><text x="6.229" y="500.46000000000004" fill="#000000" font-size="5px" font-weight="bold" font-family="'Helvetica Neue', Helvetica, Arial-Unicode, Arial, Sans-serif">Created by ibrandify</text><text x="6.229" y="505.46000000000004" fill="#000000" font-size="5px" font-weight="bold" font-family="'Helvetica Neue', Helvetica, Arial-Unicode, Arial, Sans-serif">from the Noun Project</text></svg>