<svg xmlns="http://www.w3.org/2000/svg" width="54" height="56" viewBox="30 0 512 640" x="0px" y="0px" fill="#fa360a"><title>cleaning- detergent- clean- household - mop- housekeeping</title><g><g><rect x="152" y="280" width="120" height="56"/><polygon points="231.781 108.191 210.889 155.197 221.483 158.729 259.615 115.149 231.781 108.191"/><polygon points="314.214 104 291.357 64 237.416 64 226.832 90.462 280.985 104 314.214 104"/><path d="M363.6875,352.8906,321.6146,416H478.3854l-42.0729-63.1094A1.9971,1.9971,0,0,0,434.6479,352H365.3521A1.9971,1.9971,0,0,0,363.6875,352.8906ZM416,376h16v16H416Zm-48,0h16v16H368Z"/><polygon points="220.184 64 200 64 200 80 215.139 82.379 220.184 64"/><path d="M56,206v66H72V226a18.0206,18.0206,0,0,1,18-18h60a18.0206,18.0206,0,0,1,18,18v38h16V206a22.0248,22.0248,0,0,0-22-22H78A22.0248,22.0248,0,0,0,56,206Z"/><rect x="152" y="352" width="120" height="16"/><path d="M232,226.5215V264h48a8,8,0,0,1,8,8h56V225.1738L322.0479,152H284.165Z"/><rect x="288" y="288" width="88" height="16"/><path d="M144,130a10,10,0,0,0-10-10H106a10,10,0,0,0-10,10v38h48Z"/><path d="M408,34a2.0023,2.0023,0,0,0-2-2H394a2.0023,2.0023,0,0,0-2,2V336h16Z"/><path d="M152,226a2.0023,2.0023,0,0,0-2-2H90a2.0023,2.0023,0,0,0-2,2v46h48a8,8,0,0,1,8-8h8Z"/><rect x="152" y="384" width="120" height="24"/><rect x="288" y="120" width="32" height="16"/><path d="M44,304h92V288H32v4A12.0134,12.0134,0,0,0,44,304Z"/><path d="M72,400a40,40,0,1,0,40,40A40.0455,40.0455,0,0,0,72,400Zm0,64a24,24,0,1,1,24-24A24.0272,24.0272,0,0,1,72,464Z"/><path d="M365.3521,336H376V320H288v96a8,8,0,0,1-8,8H144a8,8,0,0,1-8-8V320H64v64.57A55.9793,55.9793,0,0,1,111.1542,480H304V416a7.9982,7.9982,0,0,1,1.3438-4.4375l45.0312-67.5469A17.9638,17.9638,0,0,1,365.3521,336Z"/><circle cx="72" cy="440" r="8"/><polygon points="320 480 352 480 352 448 368 448 368 480 392 480 392 448 408 448 408 480 432 480 432 448 448 448 448 480 480 480 480 432 320 432 320 480"/><rect x="448" y="128" width="16" height="16"/><rect x="448" y="160" width="16" height="16"/><rect x="432" y="144" width="16" height="16"/><rect x="464" y="144" width="16" height="16"/><rect x="56" y="40" width="16" height="16"/><rect x="56" y="72" width="16" height="16"/><rect x="40" y="56" width="16" height="16"/><rect x="72" y="56" width="16" height="16"/></g></g>></svg>