<svg xmlns="http://www.w3.org/2000/svg" width="54" height="56" xmlns:xlink="http://www.w3.org/1999/xlink" version="1.1" x="0px" y="0px" viewBox="10 -5 64 80" fill="#fa360a" style="enable-background:new 0 0 64 64;" xml:space="preserve"><rect x="45.2" y="30" transform="matrix(0.7071 -0.7071 0.7071 0.7071 -7.8563 43.0327)" width="5.7" height="2"/><rect x="52" y="40.6" transform="matrix(0.7071 -0.7071 0.7071 0.7071 -14.1704 49.7898)" width="2" height="2.8"/><rect x="47" y="34.2" transform="matrix(0.7071 -0.7071 0.7071 0.7071 -12.0995 44.7902)" width="2" height="5.7"/><rect x="48" y="33" width="4" height="2"/><rect x="54" y="33" width="2" height="2"/><rect x="16" y="12" width="2" height="2"/><path d="M49,2c-6.6,0-12,5.4-12,12c0,5.9,4.2,10.8,9.8,11.8l-3.9,3.9C42.8,29.3,42.4,29,42,29h-4c-0.6,0-1,0.4-1,1v1H23.3  c-0.5-1.4-1.3-2.6-2.4-3.6l1-4.1l2-4.9c0-0.1,0-0.1,0-0.2c0.7-1.3,1-2.7,1-4.1l0.3-0.1c0.4-0.1,0.7-0.5,0.7-0.9v-1  c0-5.5-4.5-10-10-10C10.5,2,6,6.5,6,12v7c0,0.3,0.2,0.6,0.4,0.8C6.6,19.9,6.8,20,7,20c0.1,0,0.2,0,0.3-0.1l0.5-0.2l-1.8,8.8  C4.8,30.3,4,32.4,4,34.6v12.3l-1,5.9c0,0.3,0,0.6,0.2,0.8C3.4,53.9,3.7,54,4,54h1v7c0,0.6,0.4,1,1,1h16c0.6,0,1-0.4,1-1v-7h1  c0.3,0,0.6-0.1,0.8-0.4c0.2-0.2,0.3-0.5,0.2-0.8l-1-5.9v-3.3l7.9-3.9c1.1-0.5,1.8-1.5,2.1-2.7H37v1c0,0.6,0.4,1,1,1h4  c0.4,0,0.8-0.3,0.9-0.7l11.4,11.4l1.4-1.4L43,35.6v-3.2l6.4-6.4c0.9,0,1.7-0.2,2.5-0.4l-0.7,0.7l1.4,1.4l2-2l-0.8-0.8  C58.1,23,61,18.9,61,14C61,7.4,55.6,2,49,2z M27.8,33L24,34.5c0-0.5-0.1-1-0.1-1.5H27.8z M20.4,21.8l-2.6-0.9l-5-1.7l-1.7-0.6L16,17  l5.6,1.6L20.4,21.8z M19.8,23.7l-0.6,2.4c-1.1-0.6-2.3-1.1-3.6-1.3c-2.5-0.4-5,0.1-7.1,1.5l1.2-5.9L19.8,23.7z M22.4,16.8l-3-0.9  l3.6-1.2C22.9,15.4,22.7,16.1,22.4,16.8z M8,14h6v-2H8c0-4.4,3.6-8,8-8c4.4,0,8,3.6,8,8v0.3L8,17.6V14z M6,44h16v2H6V44z M21,60H7  v-6h14V60z M5.2,52l0.7-4h16.3l0.7,4H5.2z M23,41.9l-8.6-3.8l-0.8,1.8l4.7,2.1H6v-7.4c0-2.4,1-4.6,2.8-6.1c1.8-1.5,4.2-2.2,6.5-1.8  c3.7,0.6,6.5,3.7,6.7,7.5l-6.5-4l-1.1,1.7l8,5c0.3,0.2,0.6,0.2,0.9,0.1l3.2-1.3l1.8,3.5L23,41.9z M31,37.9l-0.8,0.4l-1.8-3.4l1-0.4  c0.6-0.2,1.2-0.2,1.7,0.2c0.5,0.4,0.8,0.9,0.8,1.5C32,36.9,31.6,37.6,31,37.9z M37,35h-3.2c-0.3-0.8-0.8-1.5-1.5-2c0,0,0,0-0.1,0H37  V35z M41,37h-2v-6h2V37z M39,14c0-5.5,4.5-10,10-10c2.4,0,4.6,0.8,6.3,2.3l-3.6,3.6c-0.5-0.3-1.1-0.6-1.8-0.7V7h-2v2.1  c-0.6,0.1-1.2,0.4-1.8,0.7l-2.2-2.2l-1.4,1.4l2.2,2.2c-0.3,0.5-0.6,1.1-0.7,1.8H41v2h3.1c0.1,0.6,0.4,1.2,0.7,1.8l-3.6,3.6  C39.9,18.6,39,16.4,39,14z M51.7,12.7c0.2,0.4,0.3,0.8,0.3,1.3c0,1.7-1.3,3-3,3c-0.5,0-0.9-0.1-1.3-0.3L51.7,12.7z M46.3,15.3  C46.1,14.9,46,14.5,46,14c0-1.7,1.3-3,3-3c0.5,0,0.9,0.1,1.3,0.3L46.3,15.3z M49,24c-2.4,0-4.6-0.9-6.3-2.3l3.6-3.6  c0.5,0.3,1.1,0.6,1.8,0.7V21h2v-2.1c0.6-0.1,1.2-0.4,1.8-0.7l2.2,2.2l1.4-1.4l-2.2-2.2c0.3-0.5,0.6-1.1,0.7-1.8H56v-2h-2.1  c-0.1-0.6-0.4-1.2-0.7-1.8l3.6-3.6C58.2,9.4,59,11.6,59,14C59,19.5,54.5,24,49,24z"/></svg>