<svg xmlns="http://www.w3.org/2000/svg" width="64" height="66" data-name="Layer 1" viewBox="10 0 100 90" x="0px" y="0px" fill="#fa360a"><title>Noun_Project_100Icon_1px_grid</title><path d="M90.91,76.64A6.09,6.09,0,1,0,97,82.73,6.1,6.1,0,0,0,90.91,76.64Zm0,8.18A2.09,2.09,0,1,1,93,82.73,2.09,2.09,0,0,1,90.91,84.82Z"/><path d="M81.83,72.24l1.79-3.58-5-2.49L81,52.09H67.32L35.2,11.93l-3.12,2.5L42.57,27.55h-11V19.36H5v4h6.18V62.27a6.1,6.1,0,0,0,6.09,6.09H27.55v.29a10.18,10.18,0,1,0,4,0V64.27H43.91V80.64H82.73v-4H76.91L78,70.31ZM43.91,31.55V43.91H31.55V31.55ZM17.27,64.36a2.09,2.09,0,0,1-2.09-2.09V23.36H27.55v41ZM35.73,78.64a6.18,6.18,0,1,1-6.18-6.18A6.19,6.19,0,0,1,35.73,78.64ZM31.55,60.27V47.91H43.91V60.27ZM47.91,76.64V34.22L62.2,52.09H51.73l4.09,24.55Zm24.94,0h-13L56.45,56.09H76.28l-1.37,8.22-7.65-3.82-1.79,3.58,8.75,4.37Z"/></svg>