<svg xmlns="http://www.w3.org/2000/svg" xmlns:xlink="http://www.w3.org/1999/xlink" version="1.1" x="0px" y="0px" viewBox="0 0 96 120" enable-background="new 0 0 96 96" xml:space="preserve"><g><path fill="#000000" d="M31.76,88.472h3.803c0.252,0,0.464-0.133,0.6-0.323c0.137,0.19,0.349,0.323,0.601,0.323h2.182   c0.245,0,0.463-0.118,0.601-0.3c0.137,0.182,0.354,0.3,0.6,0.3h2.183c0.241,0,0.456-0.124,0.594-0.309   c0.137,0.187,0.357,0.309,0.606,0.309h2.182c0.245,0,0.463-0.118,0.601-0.3c0.137,0.182,0.354,0.3,0.6,0.3h2.182   c0.241,0,0.456-0.124,0.593-0.31c0.137,0.188,0.357,0.31,0.607,0.31h2.182c0.246,0,0.464-0.118,0.601-0.301   c0.137,0.183,0.354,0.301,0.601,0.301h2.182c0.245,0,0.463-0.118,0.6-0.3c0.138,0.182,0.355,0.3,0.601,0.3h2.182   c0.245,0,0.463-0.118,0.6-0.3c0.138,0.182,0.355,0.3,0.601,0.3h3.803c0.006,0,0.014,0,0.02,0c0.415,0,0.75-0.336,0.75-0.75   c0-0.128-0.031-0.249-0.088-0.354l-3.482-12.901c2.293-0.474,3.326-1.127,3.326-2.083c0-2.147-4.785-2.721-7.613-2.721   c-3.313,0-6.113-4.236-6.113-9.25V20.201c0-4.994-0.393-11.037-1.05-12.507c-0.12-0.27-0.389-0.444-0.685-0.444h-2.432   c-0.296,0-0.563,0.173-0.685,0.443c-0.658,1.468-1.052,7.513-1.052,12.508v40.211c0,5.014-2.799,9.25-6.112,9.25   c-2.827,0-7.612,0.573-7.612,2.721c0,0.951,1.038,1.602,3.313,2.075l-3.688,13.06c-0.063,0.227-0.019,0.47,0.124,0.656   C31.304,88.362,31.524,88.472,31.76,88.472z M63.261,86.972h-2.073V79.29L63.261,86.972z M39.024,71.163   c4.197,0,7.612-4.822,7.612-10.75V20.201c0-5.187,0.388-9.833,0.781-11.451h1.341c0.393,1.62,0.78,6.266,0.78,11.451v40.211   c0,5.928,3.415,10.75,7.613,10.75c3.388,0,5.617,0.731,6.051,1.144c-0.229,0.156-0.907,0.499-2.712,0.813   c-0.018-0.001-0.035-0.002-0.054-0.002h-1.2c-0.414,0-0.75,0.336-0.75,0.75v13.104h-0.682V73.868c0-0.414-0.336-0.75-0.75-0.75   h-1.2c-0.414,0-0.75,0.336-0.75,0.75v13.104h-0.682V73.868c0-0.414-0.336-0.75-0.75-0.75h-1.201c-0.414,0-0.75,0.336-0.75,0.75   v13.104h-0.682V73.868c0-0.414-0.336-0.75-0.75-0.75h-1.2c-0.414,0-0.75,0.336-0.75,0.75v13.104h-0.682V73.868   c0-0.414-0.336-0.75-0.75-0.75h-1.2c-0.414,0-0.75,0.336-0.75,0.75v13.104h-0.682V73.868c0-0.414-0.336-0.75-0.75-0.75h-1.2   c-0.414,0-0.75,0.336-0.75,0.75v13.104h-0.683V73.868c0-0.414-0.336-0.75-0.75-0.75h-1.2c-0.414,0-0.75,0.336-0.75,0.75v13.104   h-0.682V73.868c0-0.414-0.336-0.75-0.75-0.75h-1.082c-1.741-0.304-2.432-0.634-2.683-0.796   C33.508,71.862,35.712,71.163,39.024,71.163z M34.813,79.67v7.302h-2.062L34.813,79.67z"/></g><text x="0" y="111" fill="#000000" font-size="5px" font-weight="bold" font-family="'Helvetica Neue', Helvetica, Arial-Unicode, Arial, Sans-serif">Created by faisalovers</text><text x="0" y="116" fill="#000000" font-size="5px" font-weight="bold" font-family="'Helvetica Neue', Helvetica, Arial-Unicode, Arial, Sans-serif">from the Noun Project</text></svg>