<svg xmlns="http://www.w3.org/2000/svg" viewBox="0 0 64 80" x="0px" y="0px"><g><path d="M61,51H59V13a2.006,2.006,0,0,0,2-2V5a3.009,3.009,0,0,0-3-3H32a3.009,3.009,0,0,0-3,3v6a2.006,2.006,0,0,0,2,2v9H29a1,1,0,0,0-1,1v2H26V3a1,1,0,0,0-1-1H12a1,1,0,0,0-1,1V17H9V11a1,1,0,0,0-1-1H8a1,1,0,0,0-1,1v7a1,1,0,0,0,1,1h3V49.59L4.59,56H3a1,1,0,0,0-1,1v4a1,1,0,0,0,1,1H25a1,1,0,0,0,1-1V57a1,1,0,0,0-1-1H23.41L17,49.59V8h3V30a1,1,0,0,0,1,1h7v2a1,1,0,0,0,1,1h2V51H29a1,1,0,0,0-1,1v5a1,1,0,0,0,1,1h3a4,4,0,0,0,8,0H50a4,4,0,0,0,8,0h3a1,1,0,0,0,1-1V52A1,1,0,0,0,61,51ZM13,15h2V26H13Zm0,13h2V49H13ZM24,58v2H4V58Zm-3.41-2H7.41l5-5h3.18ZM28,29H22V7a1,1,0,0,0-1-1H16a1,1,0,0,0-1,1v6H13V4H24V26a1,1,0,0,0,1,1h3ZM49,4h9a1,1,0,0,1,1,1v6H49Zm8,9V51H33V13ZM43,4h4v7H43ZM31,5a1,1,0,0,1,1-1h9v7H31ZM30,32V24h1v8Zm6,28a2,2,0,1,1,2-2A2.006,2.006,0,0,1,36,60Zm18,0a2,2,0,1,1,2-2A2.006,2.006,0,0,1,54,60Zm6-4H57.44a3.958,3.958,0,0,0-6.88,0H39.44a3.958,3.958,0,0,0-6.88,0H30V53H60Z"/><rect x="44" y="6" width="2" height="2"/><path d="M45,34c-5.047,0-9-2.636-9-6s3.953-6,9-6,9,2.636,9,6S50.047,34,45,34Zm0-10c-3.794,0-7,1.832-7,4s3.206,4,7,4,7-1.832,7-4S48.794,24,45,24Z"/></g><text x="0" y="79" fill="#000000" font-size="5px" font-weight="bold" font-family="'Helvetica Neue', Helvetica, Arial-Unicode, Arial, Sans-serif">Created by ic2icon</text><text x="0" y="84" fill="#000000" font-size="5px" font-weight="bold" font-family="'Helvetica Neue', Helvetica, Arial-Unicode, Arial, Sans-serif">from the Noun Project</text></svg>