<svg xmlns="http://www.w3.org/2000/svg" xmlns:xlink="http://www.w3.org/1999/xlink" version="1.1" x="0px" y="0px" viewBox="0 0 50 62.5" enable-background="new 0 0 50 50" xml:space="preserve"><g><rect x="27.0955" y="23.1192" width="2.036" height="1.232"/><path d="M46.0013,43.4921V2.5097H24.0107v14.1839c1.2395-0.4798,2.2091-1.2994,2.8888-2.459   c0.689-1.19,2.254-1.5844,3.4185-0.8796c1.1843,0.6943,1.5834,2.1993,0.8896,3.4185c-1.3894,2.359-3.5085,3.9983-6.1474,4.8279   c0.05-0.02,0.1099-0.03,0.1699-0.03h1.5294c0.1199-0.6397,0.6697-1.1195,1.3494-1.1195c0.7697,0,1.3994,0.5897,1.3994,1.3294   v2.6888c0,0.7297-0.6297,1.3194-1.3994,1.3194c-0.7596,0-1.3894-0.5897-1.3894-1.3194v-2.0391h-1.4894   c-0.2499,0-0.4598-0.1899-0.4598-0.4398c0-0.1699,0.1199-0.3199,0.2798-0.3898c-0.3398,0.1099-0.6797,0.1999-1.0395,0.2799v21.6107   H21.012v1.9991H49v-1.9991H46.0013z"/><polygon points="2.3862,44.4916 1,47.4903 11.016,47.4903 9.6298,44.4916  "/><path d="M23.0108,36.4951l-2.697-15.2687c-0.0024-0.0138-0.0081-0.0261-0.0106-0.0398   c0.1772,0.0062,0.3482,0.0212,0.5293,0.0212c3.3355,0,7.244-1.0982,9.5096-4.9422c0.4207-0.7131,0.1835-1.6326-0.53-2.0528   c-0.7106-0.4193-1.6321-0.1845-2.0528,0.53c-3.0789,5.2207-9.6819,2.9989-10.6822,2.9134   c-0.6777-0.1773-1.2149-0.2056-1.9275-0.0561c-0.0509,0.0048-0.1013,0.0044-0.1525,0.0146   c-3.8588,0.7541-6.3818,2.6674-7.9811,4.4799v-8.5894H5v11.5794c-0.4629,0.9489-0.8033,1.7637,0,2.5113v13.8972H1.9761v1.9991   h8.0637v-1.9991H7.016V27.596c0.1834-0.1663,0.3392-0.3672,0.4238-0.6183c0.0131-0.0384,1.0127-2.88,4.1142-4.8456l-2.5371,14.363   h2.9987v8.4968c0,0.828,0.6713,1.4994,1.4994,1.4994s1.4994-0.6713,1.4994-1.4994v-8.4968h1.9991v8.4968   c0,0.828,0.6713,1.4994,1.4994,1.4994c0.8281,0,1.4994-0.6713,1.4994-1.4994v-8.4968H23.0108z"/><circle cx="16.0138" cy="12.0056" r="3.4985"/></g><text x="0" y="65" fill="#000000" font-size="5px" font-weight="bold" font-family="'Helvetica Neue', Helvetica, Arial-Unicode, Arial, Sans-serif">Created by ProSymbols</text><text x="0" y="70" fill="#000000" font-size="5px" font-weight="bold" font-family="'Helvetica Neue', Helvetica, Arial-Unicode, Arial, Sans-serif">from the Noun Project</text></svg>