<svg xmlns="http://www.w3.org/2000/svg" viewBox="0 0 64 80" x="0px" y="0px"><g data-name="03-Cleaning"><path d="M5,39a3,3,0,0,1-3-3V34a3,3,0,0,1,3-3h5v8Zm20,4H12v2H25ZM13,49H24a1,1,0,0,0,1-1V47H12v1A1,1,0,0,0,13,49Zm14-8v7a3,3,0,0,1-3,3H13a3,3,0,0,1-3-3V41H5a4.56,4.56,0,0,1-.75-.06l1.6,18.32a3,3,0,0,0,3,2.74H28.17a3,3,0,0,0,3-2.74l1.6-18.32A4.56,4.56,0,0,1,32,41ZM12,41H25V31H12ZM32,31H27v8h5a3,3,0,0,0,3-3V34A3,3,0,0,0,32,31Zm0-2H30a9,9,0,0,0-9-9H16a9,9,0,0,0-9,9H5A11,11,0,0,1,16,18h5A11,11,0,0,1,32,29ZM49,2a3,3,0,0,0-3,3V36h6V5A3,3,0,0,0,49,2ZM59,38H39a3,3,0,0,0-3,3v2a1,1,0,0,0,1,1H61a1,1,0,0,0,1-1V41A3,3,0,0,0,59,38ZM43.25,52a2.94,2.94,0,0,0-.51-1.75A5,5,0,0,1,42,47.5a4.83,4.83,0,0,1,.21-1.5H36.93a4.85,4.85,0,0,0-.21,1.51,5,5,0,0,0,.77,2.74A2.94,2.94,0,0,1,38,52a3,3,0,0,1-.51,1.76,5.28,5.28,0,0,0,0,5.49A3,3,0,0,1,38,61a1,1,0,0,0,1,1h4.11a3.41,3.41,0,0,0-.37-2.76,5.28,5.28,0,0,1,0-5.49A3,3,0,0,0,43.25,52Zm5.25,0A2.94,2.94,0,0,0,48,50.24a5,5,0,0,1-.77-2.74,4.83,4.83,0,0,1,.21-1.5h-3.1A2.81,2.81,0,0,0,44,47.5a3,3,0,0,0,.51,1.75A4.94,4.94,0,0,1,45.25,52a5,5,0,0,1-.77,2.75,3.27,3.27,0,0,0,0,3.51A5,5,0,0,1,45.25,61a5.87,5.87,0,0,1-.08,1h3.19A3.41,3.41,0,0,0,48,59.24a5.28,5.28,0,0,1,0-5.49A3,3,0,0,0,48.5,52Zm5.25,0a2.94,2.94,0,0,0-.51-1.75,5,5,0,0,1-.77-2.74,4.83,4.83,0,0,1,.21-1.5h-3.1a2.81,2.81,0,0,0-.36,1.5,3,3,0,0,0,.51,1.75A4.94,4.94,0,0,1,50.5,52a5,5,0,0,1-.77,2.75,3.27,3.27,0,0,0,0,3.51A5,5,0,0,1,50.5,61a5.87,5.87,0,0,1-.08,1h3.19a3.41,3.41,0,0,0-.37-2.76,5.28,5.28,0,0,1,0-5.49A3,3,0,0,0,53.75,52Zm6,4.51a3,3,0,0,1,.51-1.76A5,5,0,0,0,61,52a4.94,4.94,0,0,0-.77-2.74,3,3,0,0,1-.51-1.75,2.81,2.81,0,0,1,.36-1.5H54.83a2.81,2.81,0,0,0-.36,1.5A3,3,0,0,0,55,49.25,4.94,4.94,0,0,1,55.75,52,5,5,0,0,1,55,54.74a3.27,3.27,0,0,0,0,3.51A5,5,0,0,1,55.75,61a5.87,5.87,0,0,1-.08,1H60a1,1,0,0,0,1-1,5,5,0,0,0-.77-2.75A2.94,2.94,0,0,1,59.72,56.5Z"/></g><text x="0" y="79" fill="#000000" font-size="5px" font-weight="bold" font-family="'Helvetica Neue', Helvetica, Arial-Unicode, Arial, Sans-serif">Created by Nawicon</text><text x="0" y="84" fill="#000000" font-size="5px" font-weight="bold" font-family="'Helvetica Neue', Helvetica, Arial-Unicode, Arial, Sans-serif">from the Noun Project</text></svg>