<svg xmlns="http://www.w3.org/2000/svg" xmlns:xlink="http://www.w3.org/1999/xlink" version="1.1" x="0px" y="0px" viewBox="0 0 64 80" enable-background="new 0 0 64 64" xml:space="preserve"><g><rect x="-5.893" y="16.709" transform="matrix(0.6273 0.7788 -0.7788 0.6273 18.4884 -3.2114)" width="36.984" height="2"/><path d="M21.367,58.902c-0.744,0-1.162-0.318-1.381-0.586c-0.331-0.402-0.435-0.933-0.308-1.574   c0.549-2.782,0.592-4.62-0.255-9.396c-0.814-4.574-0.511-9.346,0.812-12.765c1.053-2.726,4.011-5.477,8.245-5.477   c2.546,0,5.242,0.985,8.014,2.928c6.545,4.587,10.277,4.808,10.314,4.81l2.197,0.101l-6.77,7.085l-5.651-2.476   c1.303,1.36,2.367,2.821,2.555,4.092c0.107,0.729-0.06,1.397-0.481,1.932c-2.171,2.742-7.689,5.574-7.923,5.693l-0.828,0.423   l-2.532-4.182l0.955,6.174l-0.541,0.353C27.053,56.516,23.293,58.902,21.367,58.902z M28.479,31.104   c-3.756,0-5.777,2.639-6.38,4.197c-1.196,3.093-1.461,7.464-0.708,11.694c0.889,5.004,0.829,7.086,0.3,9.867   c1.032-0.211,3.005-1.259,4.461-2.158l-2.299-14.864l6.79,11.208c1.575-0.87,4.998-2.886,6.445-4.714   c0.035-0.045,0.109-0.139,0.071-0.398c-0.274-1.867-4.518-5.453-7.128-7.274l0.974-1.736l10.751,4.71l3.022-3.16   c-1.895-0.519-5.108-1.773-9.435-4.805C32.917,31.968,30.607,31.104,28.479,31.104z"/><path d="M52.131,49.42c-2.319,0-4.068-1.117-4.068-2.6s1.749-2.6,4.068-2.6s4.068,1.117,4.068,2.6S54.45,49.42,52.131,49.42z    M52.131,46.221c-1.26,0-1.995,0.46-2.075,0.644c0.08,0.096,0.816,0.556,2.075,0.556s1.995-0.46,2.075-0.644   C54.126,46.681,53.391,46.221,52.131,46.221z"/><path d="M55.711,40.342c-2.066,0-3.686-1.253-3.686-2.854s1.619-2.854,3.686-2.854s3.686,1.254,3.686,2.854   S57.777,40.342,55.711,40.342z M55.711,36.634c-1.014,0-1.686,0.515-1.686,0.854s0.672,0.854,1.686,0.854s1.686-0.514,1.686-0.854   S56.725,36.634,55.711,36.634z"/><path d="M41.773,54.662c-1.882,0-3.301-1.034-3.301-2.406c0-1.35,1.45-2.406,3.301-2.406c1.852,0,3.303,1.057,3.303,2.406   S43.625,54.662,41.773,54.662z M41.773,51.85c-0.782,0-1.252,0.316-1.307,0.442c0.055,0.054,0.524,0.37,1.307,0.37   c0.783,0,1.254-0.316,1.309-0.442C43.026,52.167,42.557,51.85,41.773,51.85z"/><path d="M51.044,57.986c-1.644,0-2.981-1.194-2.981-2.662s1.338-2.662,2.981-2.662s2.981,1.194,2.981,2.662   S52.688,57.986,51.044,57.986z M51.044,54.662c-0.578,0-0.981,0.349-0.981,0.662s0.403,0.662,0.981,0.662s0.981-0.349,0.981-0.662   S51.622,54.662,51.044,54.662z"/><path d="M61.529,56.324c-1.386,0-2.471-1.423-2.471-3.238s1.085-3.238,2.471-3.238S64,51.271,64,53.086   S62.915,56.324,61.529,56.324z M61.526,51.848c-0.104,0.022-0.468,0.451-0.468,1.238c0,0.781,0.357,1.21,0.471,1.238   C61.643,54.296,62,53.867,62,53.086C62,52.299,61.637,51.87,61.526,51.848z"/><path d="M39.729,61.693c-1.464,0-6.242-0.173-6.242-2.395s4.778-2.395,6.242-2.395s6.242,0.173,6.242,2.395   S41.192,61.693,39.729,61.693z M36.197,59.299c0.745,0.205,1.947,0.395,3.531,0.395s2.786-0.189,3.531-0.395   c-0.745-0.205-1.947-0.395-3.531-0.395S36.942,59.094,36.197,59.299z"/></g><text x="0" y="79" fill="#000000" font-size="5px" font-weight="bold" font-family="'Helvetica Neue', Helvetica, Arial-Unicode, Arial, Sans-serif">Created by Creative Stall</text><text x="0" y="84" fill="#000000" font-size="5px" font-weight="bold" font-family="'Helvetica Neue', Helvetica, Arial-Unicode, Arial, Sans-serif">from the Noun Project</text></svg>