<svg xmlns="http://www.w3.org/2000/svg" data-name="Слой 1" viewBox="0 0 100 125" x="0px" y="0px"><title>швабра</title><g><path d="M54.3569,49.7148c-0.6063.71321-1.19733,1.44039-1.82844,2.13094a3.00018,3.00018,0,0,1-.72688.44072l0.25975,0.30015a3.48617,3.48617,0,0,0,.81338-0.4854c1.45723-1.53623,3.412-2.25816,5.20211-3.25561a10.077,10.077,0,0,1,3.4342-1.16644c2.64663-.40135,4.60415.45719,5.65546,3.33674,0.86265,2.36279.81685,4.84989,0.96348,7.31625a35.91833,35.91833,0,0,0,.6099,4.0528,0.92929,0.92929,0,0,0,.45712.46849c1.36827,0.8152,2.72083,1.66281,4.13029,2.401,1.223,0.64056,1.73608,1.868,2.58291,2.81854,1.6787,1.8842.24416,6.04562-2.16265,6.76177a3.86513,3.86513,0,0,0-1.05528.46957,1.3733,1.3733,0,0,0-.53588.68107c-0.727,2.51751-1.4044,5.04938-2.13164,7.56681-0.36976,1.28-.7944,2.54509-1.228,3.80528a2.04794,2.04794,0,0,1-1.9135,1.4271c-1.10116.08871-2.2049,0.17337-3.30874,0.19377a30.12064,30.12064,0,0,1-4.06046-.05425A42.69324,42.69324,0,0,1,46.361,84.96218c-1.37207-.64335-2.77025-1.23155-4.16273-1.83044a0.8109,0.8109,0,0,1-.52224-0.81621,15.53619,15.53619,0,0,0-.453-2.10134,1.01879,1.01879,0,0,1-.09831-0.29026c0.28709-2.05151-.38065-4.02385-0.52467-6.04053a26.14518,26.14518,0,0,0-.896-4.66175,3.631,3.631,0,0,0-1.054-1.15624,3.51444,3.51444,0,0,1,.98223.01748c2.54393,0.78891,5.06608,1.64975,7.61866,2.40865,2.80131,0.83284,5.62648,1.58583,8.44444,2.36207,0.99574,0.2743,2.00086.51458,3.011,0.77276l-3.10209-2.13352a4.32685,4.32685,0,0,1-.5424-5.533c-1.80668.78654-2.93386,1.5066-2.27808,2.34639,1.11792-.79324.67821,0.63572,1.35432,0.77754a2.02711,2.02711,0,0,1-2.19743-1.15208c-0.535.89749-1.35663,0.45433-2.12347,0.463l-0.07844,1.39064,5.8721,1.69937c-0.0441.73529-.59335,0.38529-0.85144,0.31072-1.32865-.38381-2.63379-0.848-3.95354-1.26389-1.07364-.33831-2.15811-0.64208-3.2346-0.97152-2.11334-.64677-4.22857-1.288-6.33186-1.96615a3.199,3.199,0,0,1-.80289-0.58705L40.57577,66.77a8.20489,8.20489,0,0,0,1.1304.47986A1.0776,1.0776,0,0,0,42.492,67.202a1.96168,1.96168,0,0,1,2.11776-1.44542,1.81589,1.81589,0,0,0,.2879-0.10545c0.85365-.1094,1.70732-0.22187,2.564-0.30095a1.79436,1.79436,0,0,1,.59024.32675c-0.65517.09324-1.10217,0.131-1.53718,0.2246a16.34726,16.34726,0,0,0-2.139.54092,1.96184,1.96184,0,0,0-1.11219.78c-0.24492.57272,0.41561,0.64707,0.79206,0.79379,0.5004,0.195,1.02411.3305,1.53849,0.48935,1.17186,0.36192,2.34414.72247,3.63994,1.12169,0.04132-.43236.07335-0.77813,0.10757-1.12369,0.26575-2.68367.46406-5.37639,0.82368-8.04743a42.31918,42.31918,0,0,1,1.04091-4.67242c0.44188-1.74924,1.87838-2.68762,3.27524-3.48932C56.70014,51.021,59.026,49.92636,61.347,48.843a2.64444,2.64444,0,0,1,3.276.36911C65.19137,49.7953,65.7648,50.37349,66.336,50.954c0.04347,0.38115.08284,0.76275,0.131,1.14326,0.21882,1.72835.47269,3.453,0.65053,5.18556,0.15067,1.46774.20419,2.94528,0.33324,4.41567a1.45741,1.45741,0,0,0,.472.46406c-0.08774-.67154-0.18028-1.17486-0.21522-1.68213-0.16422-2.38409-.24974-4.77588-0.5014-7.1503a10.00359,10.00359,0,0,0-.87978-2.36685A2.788,2.788,0,0,0,64.80346,48.798c-1.761-1.21207-3.64391-.47143-5.41955.01913A11.48445,11.48445,0,0,0,56.43635,50.319c-1.253.79326-2.43636,1.69665-3.64686,2.55667a6.01719,6.01719,0,0,0-2.48707,3.42064,38.06529,38.06529,0,0,0-1.00253,4.59207c-0.30954,2.39394-.44331,4.81046-0.66275,7.2164a8.51847,8.51847,0,0,1-.18708.93117l-0.37585-.08436c0.24756-5.25646.78716-10.46128,2.87934-15.38866l-6.58983,7.27249,0.19463,0.25581c1.34849-.46327,2.51383-1.45531,3.96355-1.6263-0.358.67726-3.83677,2.09506-4.46061,1.93948q-0.67646.798-1.35278,1.59447l0.11075,0.12927q2.52915-1.39627,5.05831-2.79257l0.14785,0.23789a1.11042,1.11042,0,0,1-.257.33925c-1.1495.639-2.297,1.28342-3.46761,1.88209a8.50547,8.50547,0,0,0-2.32656,1.10693,53.16978,53.16978,0,0,0-3.31455,4.17349c-1.19344,1.70436-2.37482,3.41734-3.58468,5.11-0.76964,1.07672-1.58155,2.12325-2.40169,3.21966L33.22055,76.728a10.02676,10.02676,0,0,0,.45793,1.527,2.92826,2.92826,0,0,1-2.6079,4.29862c-1.13606.01875-2.32684,0.31283-3.4019-.38817a0.71069,0.71069,0,0,0-.49922.31784,40.993,40.993,0,0,0-2.20107,4.49591,9.98069,9.98069,0,0,0-.27557,3.02292,1.38361,1.38361,0,0,0,.42725.564,2.26506,2.26506,0,0,0,.65685-0.75072c0.237-1.077.37659-2.17554,0.55013-3.26643,0.12108-.76114.1869-1.53606,0.37718-2.27926a5.088,5.088,0,0,1,.63384-1.14755l0.2271,0.06773,0.18458,0.57433,0.59681-.817a3.29436,3.29436,0,0,1,.23866,1.06866c-0.17212,1.37388-.37466,2.74735-0.65111,4.10361a3.85558,3.85558,0,0,0,.47011,2.76121c0.80751-1.23838,1.50085-2.28287,1.29568-3.76559a30.50431,30.50431,0,0,1-.10316-3.75838,2.70935,2.70935,0,0,1,.24395-0.61057,12.68007,12.68007,0,0,1,.62385,1.14948,7.0916,7.0916,0,0,1,.25021.95863c-0.08629.94332-.21766,1.88523-0.2456,2.83019a13.66468,13.66468,0,0,0,.13687,2.47752,2.45789,2.45789,0,0,0,.64427.85689c0.17021-.34487.34487-0.6877,0.50662-1.0365a0.39759,0.39759,0,0,0,.00784-0.23073q-0.50527-2.43963-1.01706-4.87787l0.17173-1.83853a2.78261,2.78261,0,0,1,.44993.66858c0.33326,1.66222.61582,3.33492,0.96985,4.99247a2.30243,2.30243,0,0,0,1.62527,1.82828,9.05313,9.05313,0,0,0-1.276-4.4815,11.78673,11.78673,0,0,1-1.0305-1.96089,4.15645,4.15645,0,0,1-.01434-1.37594l0.27-.05782,2.48783,2.47237,0.15982-.15623c-0.64748-.71372-1.295-1.42743-2.02229-2.22915a1.62129,1.62129,0,0,1,.64794-0.22639,7.55363,7.55363,0,0,1,4.38918,2.04922,10.0752,10.0752,0,0,0,2.4873,1.47052,0.65428,0.65428,0,0,0,.61365-0.14706,0.68018,0.68018,0,0,0-.05313-0.61179,2.06913,2.06913,0,0,0-1.32765-1.06216,11.61169,11.61169,0,0,1-2.09767-.959c-0.72138-.33512-1.46286-0.63018-2.16784-0.99612a9.42211,9.42211,0,0,1-1.11159-.78794l0.143-.26883a4.266,4.266,0,0,1,.73482.19113c1.58747,0.72424,3.1956,1.41165,4.7358,2.22672a4.48066,4.48066,0,0,1,1.46789,1.42219,1.31881,1.31881,0,0,1,.00267,1.18426,1.34652,1.34652,0,0,1-1.05686.22515,6.11667,6.11667,0,0,1-1.2833-.44565c0.08462,0.27673.15457,0.48779,0.21329,0.70192,0.07758,0.28291.14636,0.56826,0.21892,0.85256l-0.94311.11071c0.02609,0.21479.075,0.4821,0.08774,0.75114,0.02537,0.53762-.24321.69421-0.73487,0.53113a0.68815,0.68815,0,0,0-.343-0.09732c-1.27792,1.07054-1.89713-.23891-2.72231-0.75706a2.87323,2.87323,0,0,1-.50664-0.60184c0.18806,0.92086.39317,1.7003,0.48613,2.49289a2.71142,2.71142,0,0,1-.28021.97492,5.11,5.11,0,0,1-1.09238-.39233,4.54647,4.54647,0,0,1-.777-0.896,3.613,3.613,0,0,1-.17484.99713,1.60589,1.60589,0,0,1-.729.84172,1.35322,1.35322,0,0,1-.96418-0.59089,6.68371,6.68371,0,0,1-.59371-1.41492,8.98272,8.98272,0,0,1-.6993,1.20015,1.24543,1.24543,0,0,1-.79509.54966,1.59915,1.59915,0,0,1-.735-0.76663,4.17033,4.17033,0,0,1-.26395-1.01706l-0.81363,1.667L25.87454,90.715l-0.00282.21063a2.56246,2.56246,0,0,1-1.22148-.04229,1.807,1.807,0,0,1-.48342-1.11047A8.29142,8.29142,0,0,1,24.149,88.354c-0.35165.51873-.63291,0.97562-0.96223,1.39479a0.67944,0.67944,0,0,1-.50883.21587,0.58107,0.58107,0,0,1-.22913-0.427c-0.079-1.03747-.13129-2.077-0.19086-3.09185-0.30811.45436-.6611,1.02735-1.07213,1.55514a2.786,2.786,0,0,1-.68971.47667,1.988,1.988,0,0,1-.23164-0.85856,28.81172,28.81172,0,0,1,2.53278-5.88626c0.174-.3361.31741-0.688,0.54411-1.1839a9.56627,9.56627,0,0,0-3.51479,5.16883l1.18284-1.25658,0.1158,0.092c-0.54545.79073-1.07518,1.59328-1.65124,2.36106a1.25224,1.25224,0,0,1-.60122.17525l-0.142-.91552c-1.35736.09176-1.65824-.12692-2.15764-1.62467q0.8106-1.23223,1.62122-2.46444l-0.20074-.13054a4.974,4.974,0,0,0-2.23485,2.48088c0.66789-.13483.66789-0.13483,0.81856,0.11817a2.42967,2.42967,0,0,1-1.15174.42228,2.44124,2.44124,0,0,1-.72667-1.01127l0.49187-1.02006c-0.77962.07644-1.33924,0.881-2.1642,0.40038,0.39615-2.2979,1.93968-3.61751,3.83134-4.63453,1.7195-.92447,3.46115-1.80768,5.18361-2.72674a1.23385,1.23385,0,0,1,1.53457.32344,5.32748,5.32748,0,0,1-.49578.92445c-0.68793.8439-1.42183,1.65015-2.12,2.486-0.27177.32534-.49564,0.6907-0.86294,1.20968L20.93,80.50263a1.816,1.816,0,0,1-.22824.469c-0.71078.77181-1.47278,1.49929-2.14684,2.30113a3.427,3.427,0,0,0-1.158,2.09132c1.88681-1.32961,2.92271-3.13454,4.1875-4.93438l-0.66309.08172a16.33448,16.33448,0,0,0,1.33585-1.65987c0.50228-.8112,1.81118-1.22765,1.30956-2.55292A3.80211,3.80211,0,0,1,27.808,73.89492c0.99649,0.19609,1.98559.42978,3.27384,0.71114,1.81317-2.54215,3.77624-5.29446,5.72711-8.02965-0.78765-1.18153-.86808-1.7701-0.23836-2.28912a8.551,8.551,0,0,1,1.78152-1.2189,13.59471,13.59471,0,0,0,5.26657-4.62358c1.02624-1.41232,2.18815-2.72866,3.32522-4.05728q3.59373-4.1991,7.22776-8.3637c2.30419-2.63921,4.6086-5.279,6.95813-7.87763,3.38109-3.73955,6.33427-7.81045,9.34945-11.83778,1.24994-1.66951,2.68723-3.198,4.02178-4.80517q1.75265-2.11067,3.46444-4.25517c1.17511-1.46869,2.32644-2.95637,3.49341-4.43159,0.95751-1.21044,1.89079-2.44263,2.90432-3.60454a2.47246,2.47246,0,0,1,1.26113-.67779c0.93844-.21454,1.35736.33741,1.349,1.30427-0.01624,1.88876-1.19628,3.20868-2.18453,4.57772-1.62017,2.24447-3.397,4.37607-5.11429,6.55009-1.02085,1.29237-2.02653,2.59815-3.08774,3.85686q-3.39054,4.02154-6.83654,7.99622c-2.23267,2.56662-4.50276,5.10078-6.76306,7.64328q-2.41568,2.71725-4.84895,5.41883A37.523,37.523,0,0,1,54.368,49.70453a0.97614,0.97614,0,0,0,.00162-0.41524c-0.59594-.29208-1.20856-0.55013-1.81665-0.81742l-0.16163.14353a1.72826,1.72826,0,0,0,.4586.66756A10.27366,10.27366,0,0,0,54.3569,49.7148Zm29.66168-34.936,0.11307-.10623,1.6421-2.56161-0.14-.10222-1.51344,1.8608L83.98776,13.773l0.4195-.96771-1.48774-.38276,0.23284-.766a9.54541,9.54541,0,0,0-1.23556,1.47234q-3.10141,3.89666-6.23437,7.76812a0.56747,0.56747,0,0,0-.02156.87188c0.33921,0.3675.64263,0.768,1.03536,1.24352l0.44384-1.2447a0.88192,0.88192,0,0,1-.07067,1.33265,1.51331,1.51331,0,0,1-1.10028-.32549,7.7358,7.7358,0,0,1-1.06208-.96887l-0.76728.877c1.088,1.78785,1.088,1.78785,1.74444,1.67029l-0.06988-.83855,0.169-.04038,0.45671,1.008c1.25552-1.61237,2.44368-3.13826,3.63915-4.67352l-0.47424-.443-0.95137,1.37141a0.71155,0.71155,0,0,0-.0536.49417,0.72952,0.72952,0,0,1-.28723.52758,1.4936,1.4936,0,0,1-1.45028-1.79565l0.7892,1.44441,0.46566-.33432-0.65645-1.616,0.16324-.06492,0.96329,0.71416c0.9915-.734.044-1.63506,0.42107-2.50032l1.08538,1.75163,0.16554-.06961,0.138-.896,0.44227,0.54341L82.56347,16.782l-1.07628-.75165a2.05291,2.05291,0,0,1,.11921.83191,1.12941,1.12941,0,0,1-.53277.49457,12.79117,12.79117,0,0,1-1.11115-.98832l0.20894-.25528,0.92888,0.61034-0.30389-1.66042,0.15451-.1385c0.24584,0.17468.50249,0.33622,0.73467,0.52749,0.26612,0.21925.51054,0.46484,0.87212,0.79835l0.10913-1.27278,0.18656-.03181,0.27169,1.15142ZM71.7875,75.555c-2.06873,0-3.92767.07272-5.77819-.0209a11.3662,11.3662,0,0,1-5.10775-1.3122,0.809,0.809,0,0,0-.57786-0.154c-0.667.45323-1.19587-.039-1.78118-0.18491-3.14957-.785-6.31393-1.51355-9.44963-2.3499-1.48251-.39544-2.901-1.02486-4.36946-1.48073-1.48173-.46-2.98943-0.83627-4.4405-1.23677,0.12262,0.76632.23488,1.44552,0.33953,2.12589a72.76934,72.76934,0,0,1,1.05,7.312c0.07012,1.38684.41725,2.67862,0.616,4.016a0.6294,0.6294,0,0,0,.28136.38667,8.38791,8.38791,0,0,0,1.16812.59493c3.22638,1.27431,6.42238,2.63951,9.70142,3.7613a27.80717,27.80717,0,0,0,5.99678,1.31981,37.72651,37.72651,0,0,0,6.3284.02509c1.70741-.10621,2.33751.05909,3.04852-2.2942q1.15713-3.82989,2.26778-7.67374C71.33374,77.5154,71.5234,76.62316,71.7875,75.555ZM51.16706,58.16971a4.59517,4.59517,0,0,1,3.29777-.68267,31.36317,31.36317,0,0,1,6.81292,2.41609,11.53188,11.53188,0,0,0,5.42613,1.609,1.95631,1.95631,0,0,0,.05013-0.37771c-0.18893-3.05933-.0857-6.1433-0.80086-9.15808A3.59129,3.59129,0,0,0,61.603,49.362a18.666,18.666,0,0,0-2.814,1.21416c-1.39241.7051-2.77952,1.42972-4.11507,2.23528a6.32153,6.32153,0,0,0-2.88283,2.76888A16.967,16.967,0,0,0,51.16706,58.16971Zm6.49318-12.43238c0.15641-.1466.3752-0.32306,0.56014-0.52982,0.94631-1.05784,1.88436-2.12308,2.82446-3.18647,2.83726-3.20939,5.68312-6.41126,8.50709-9.6323,1.27414-1.45328,2.49628-2.95206,3.758-4.41643,0.6251-.72551.63746-0.70463-0.16449-1.17894a5.29617,5.29617,0,0,1-.68263-0.508c-0.79306-.66237-0.79161-0.66573-1.43291.10528-0.29635.35628-.59777,0.70884-0.88174,1.07484-2.25242,2.9029-4.44633,5.85332-6.76661,8.70083-2.291,2.81151-4.70856,5.5198-7.18191,8.40314Zm11.4993,17.63935a8.01439,8.01439,0,0,1-1.02945-.54341,7.08119,7.08119,0,0,0-5.5562-.91871,11.14011,11.14011,0,0,0-6.50418,3.5893c-1.54394,1.77621-1.84173,4.11578.29774,5.833A12.2692,12.2692,0,0,0,58.9,72.9018a17.90606,17.90606,0,0,0,4.448,1.721,43.80764,43.80764,0,0,0,7.62488.49235,4.985,4.985,0,0,0,4.03963-1.76178c1.09117-1.37839,1.5958-3.57694.39983-4.98358a18.95468,18.95468,0,0,0-1.64187-2.04743,24.10863,24.10863,0,0,0-2.60385-1.78954l-0.11734.176c0.12762,0.081.25326,0.1653,0.38315,0.24248a5.6077,5.6077,0,0,1,2.392,6.55769,3.77824,3.77824,0,0,1-2.93926,2.779c-0.58294.08908-1.173,0.131-1.75717,0.21281a12.47764,12.47764,0,0,1-6.79948-.91733,24.3677,24.3677,0,0,0-3.17494-1.20588A2.64171,2.64171,0,0,1,57.47439,70.9a4.74506,4.74506,0,0,1,1.16074-5.22261c0.69979-.52409,1.36329-1.09973,2.08449-1.59151a7.46587,7.46587,0,0,1,4.64055-1.42344A27.62581,27.62581,0,0,1,69.15954,63.37668ZM53.27568,50.5169c-1.3885-1.21841-1.641-1.04973-2.41366-.14586-0.31582.36946-.61843,0.75015-0.93175,1.12179-1.22869,1.45732-2.47132,2.90307-3.68607,4.37191q-2.2636,2.73709-4.49079,5.50427c-2.13542,2.63688-4.39311,5.18761-6.35591,7.9477-1.845,2.59447-3.671,5.18888-5.76061,7.59386a2.27187,2.27187,0,0,0-.24414.88474c0.48022,0.075.92182,0.742,1.44668,0.11948,0.62961-.74673,1.27731-1.48272,1.85025-2.272,1.55452-2.14138,3.03864-4.33448,4.617-6.45776,1.49291-2.00831,3.0295-3.98742,4.62046-5.91876q2.97691-3.61377,6.08274-7.12065C49.70173,54.2406,51.48863,52.42,53.27568,50.5169Zm8.11674,11.21538c-0.64414-.3413-1.09993-0.63512-1.59376-0.83489-1.61525-.65345-3.24372-1.27431-4.86837-1.90446a4.81579,4.81579,0,0,0-4.07494.98369,0.46116,0.46116,0,0,0-.12262.19582q-0.34286,2.05483-.67394,4.11164a1.858,1.858,0,0,0,.80656-0.42781,1.19977,1.19977,0,0,1,1.59533-.24036,1.00675,1.00675,0,0,0,.9065-0.13322,2.00077,2.00077,0,0,1,2.0674-.61773,0.79833,0.79833,0,0,0,.61582-0.24787,2.71023,2.71023,0,0,1,2.544-.37325A4.8332,4.8332,0,0,0,61.39242,61.73228ZM30.25272,75.36309a6.35384,6.35384,0,0,0-4.564-.52676c-1.31533.49525-1.61585,1.96763-.669,3.235,0.47095,0.63037.95541,1.254,1.37918,1.91562a3.7234,3.7234,0,0,0,3.7022,2.02127c1.32834-.14282,3.02756-1.14573,3.1208-2.35857a5.34611,5.34611,0,0,0-.95332-2.75405,2.02039,2.02039,0,0,0-.7546,1.84227,1.25793,1.25793,0,0,1-1.745,1.29859,26.46485,26.46485,0,0,1-2.92881-1.67634,1.05329,1.05329,0,0,1-.34148-0.66038,2.06734,2.06734,0,0,1,2.55541-1.9536A0.89932,0.89932,0,0,0,30.25272,75.36309Zm-7.4402,13.777,0.18187,0.05528A11.79021,11.79021,0,0,0,23.9406,87.731c0.8766-1.90554,1.71053-3.83089,2.537-5.75887a0.59044,0.59044,0,0,0-.14455-0.50531c-0.54017-.54628-1.11091-1.06232-1.68212-1.59969A24.00236,24.00236,0,0,0,20.88,87.4415c0.78624-1.0588,1.84813-1.87646,2.24334-3.24961a18.53755,18.53755,0,0,1,1.49422-3.19762,1.43824,1.43824,0,0,1,.58883-0.34155,1.25494,1.25494,0,0,1,.24081.59417,7.50954,7.50954,0,0,1-.75824,1.98033c-0.73519,1.11349-1.66641,2.1111-1.76664,3.53095C22.86637,87.55079,22.84789,88.346,22.81252,89.14011ZM50.52626,65.42984l0.193,0.04569a4.58817,4.58817,0,0,1-.10121.61323,8.72025,8.72025,0,0,0-.40959,1.31207,0.78,0.78,0,0,0,.40748.61847c0.79923,0.30592,1.32217-.2044,1.18734-1.1032a1.49947,1.49947,0,0,1,.95014-1.99517c1.03549-.57168,1.26992-0.44829,1.328.81144l2.278-2.34236v0.95387c0.76076-.51253,1.44524-0.97369,2.12973-1.43485l-0.01022-.21008a5.63424,5.63424,0,0,0-1.06425.01112c-0.83.16253-1.65172,0.37134-2.471,0.58384a3.6298,3.6298,0,0,0-1.11051.39132,1.59416,1.59416,0,0,1-1.90778.30063,0.71473,0.71473,0,0,0-.52241-0.036,2.20233,2.20233,0,0,0-1.41036,2.53276Zm21.54781,7.87443c2.85439-2.4916,1.78487-6.71583-2.07944-8.6412a0.72475,0.72475,0,0,0,.64421,1.07764,2.62239,2.62239,0,0,1,1.21956,1.063,1.91392,1.91392,0,0,1-.32188.89267c-0.06336.16357-.1256,0.32754-0.2152,0.56146,0.45,0.19358.87683,0.35514,1.28359,0.55719a1.56234,1.56234,0,0,1,.86153,1.60392,1.24343,1.24343,0,0,1-1.2295,1.09176,16.00953,16.00953,0,0,1-1.78063.01424ZM50.91561,58.89277l0.13563,0.27992c0.24281-.07544.49145-0.13607,0.7274-0.22893a4.46087,4.46087,0,0,1,2.8832-.54949,18.84562,18.84562,0,0,1,2.00767.76051c1.58694,0.647,3.19383,1.25341,4.74089,1.98561a1.45279,1.45279,0,0,0,1.69108.0385c-0.546-.21522-1.07591-0.39237-1.57845-0.62783a43.52864,43.52864,0,0,0-6.05476-2.43672,6.05444,6.05444,0,0,0-3.0282-.06431A5.76082,5.76082,0,0,0,50.91561,58.89277Zm11.8941,8.35128c0.07748-.84664.14962-1.65943,0.2268-2.47175a1.23311,1.23311,0,0,1,1.59768-1.24853,1.80509,1.80509,0,0,0,.35989-0.087c0.29947-.03343.60068-0.05125,0.97334-0.08113l-0.21091,1.08492a0.74368,0.74368,0,0,0,.16853-0.02033c1.30884-.80915,1.31315-0.80085,2.433.213a0.71193,0.71193,0,0,0,.55542.05167,2.40034,2.40034,0,0,0,.55369-0.30309c-2.55656-1.64878-6.38684-1.62046-8.21382-.06469ZM67.665,70.18822l0.04826,0.16061c1.434,0.15754,2.86685.329,4.30355,0.45668a0.74361,0.74361,0,0,0,.61133-0.287,0.94914,0.94914,0,0,0-.01128-0.77179,2.07294,2.07294,0,0,0-2.25159-.80095C69.44895,69.32013,68.56367,69.77053,67.665,70.18822Zm-1.20657.93673a1.22449,1.22449,0,0,0,.15974.41936,6.57462,6.57462,0,0,0,3.50774,1.58578,0.5583,0.5583,0,0,0,.45414-0.29282,0.63914,0.63914,0,0,0-.16159-0.53253A3.72977,3.72977,0,0,0,66.45845,71.12494Zm8.54888-45.44517-0.21351.06667L72.6,24.08986a2.63343,2.63343,0,0,0-.09668,1.12786A4.27836,4.27836,0,0,0,74.33969,26.385c0.38528,0.05516.89463-.756,1.15811-1.00078l-2.01094-1.87279c-0.337.09962-.45055,0.44115,0.22249,0.8534a8.859,8.859,0,0,1,1.15813.89183A0.97241,0.97241,0,0,1,75.00733,25.67977ZM30.95662,78.983c-0.63059-.22088-1.225-0.38166-1.77778-0.6336-0.87588-.39916-0.89456-0.557-0.42917-1.39121a2.05135,2.05135,0,0,0,.12171-0.61987A2.23918,2.23918,0,0,0,28.156,76.2982a2.40583,2.40583,0,0,0-.74209.40712,0.81482,0.81482,0,0,0-.05408,1.32828,17.92626,17.92626,0,0,0,2.304,1.384A0.79759,0.79759,0,0,0,30.95662,78.983Zm33.05379-9.44889a13.14717,13.14717,0,0,0,1.00429-1.10486q1.061-1.488,2.04908-3.02687a0.637,0.637,0,0,0-.13708-0.56461,0.62751,0.62751,0,0,0-.51505.061,3.14789,3.14789,0,0,0-1.35958,2.049,1.375,1.375,0,0,1-.25609.70214C64.02827,68.054,64.2136,68.78585,64.01041,69.53406ZM36.72419,88.77645a11.19136,11.19136,0,0,0-.83764-1.22429c-0.99939-1.09711-2.03073-2.1651-3.04886-3.24517-0.09745-.10338-0.18814-0.21314-0.42773-0.48584C33.74818,87.05233,35.11125,88.66884,36.72419,88.77645ZM61.07887,65.1191c-0.95763.55924,0.00231,3.658,1.44507,4.95365A12.925,12.925,0,0,0,61.07887,65.1191ZM67.76,68.99984c0.5498-.17807,1.23344-0.35091,1.8746-0.62357a6.5357,6.5357,0,0,0,1.27774-.79893,0.528,0.528,0,0,0,.09413-0.90524,0.59059,0.59059,0,0,0-.97615.06319c-0.34278.3525-.79479,0.59827-1.14084,0.94823C68.45774,68.12011,68.08546,68.61546,67.76,68.99984ZM13.7966,82.60044L14.101,82.91694c0.60288-.43483,1.22857-0.84176,1.803-1.3114,0.75254-.6153,1.45755-1.28838,2.19679-1.92046,0.42909-.36689.8852-0.70216,1.32916-1.05167l-0.17419-.22282c-1.1272.83568-2.24685,1.68185-3.38525,2.502-0.46762.33688-.99754,0.58872-1.45653,0.93559A4.03369,4.03369,0,0,0,13.7966,82.60044Zm52.44809-9.67085c-0.26393-.61731-0.49117-1.20746-0.774-1.7696a0.57083,0.57083,0,0,0-.4802-0.26126,0.55676,0.55676,0,0,0-.302.4585,11.82238,11.82238,0,0,0,.49437,1.909,0.73112,0.73112,0,0,0,.64611.28113A1.46961,1.46961,0,0,0,66.24469,72.92959Zm-0.281-4.1053c1.10841-.9701,2.52042-1.59149,3.32754-2.935a1.42843,1.42843,0,0,0-1.109.11524C67.39278,66.90051,66.69508,67.87725,65.96364,68.82429ZM53.799,47.02416A2.7671,2.7671,0,0,0,54.944,47.687a1.10817,1.10817,0,0,0,.442-1.692l0.68244-.07745-0.31-.81442C55.11981,45.72926,54.54358,46.29421,53.799,47.02416ZM39.54237,63.11385l-0.06548-.11046c-0.68453.404-1.3862,0.782-2.049,1.21892a1.03113,1.03113,0,0,0-.17869,1.78488C38.02048,65.034,38.78142,64.07392,39.54237,63.11385Zm19.31315,7.5006-0.098.21739c0.90429,1.01029,1.87215,1.85844,3.33816,1.43616l0.11825-.29425Q60.5347,71.29411,58.85552,70.61445ZM66.807,74.13813c0.52513,0,1.00936.01661,1.49193-.00461,0.48916-.02151.97814-0.06813,1.46446-0.12654,0.44855-.05389.89348-0.138,1.34-0.20877l0.01325-.21334c-1.53575.66511-2.76141-.14246-4.01231-0.81881Zm-13.2531-7.78938V65.06031a1.43468,1.43468,0,0,0-1.31252,2.21736Zm6.39493-1.1517-1.55025,1.35311,1.92545,1.25457ZM57.926,67.90062c-0.22955,1.70121-.04648,2.20719.69555,2.1171l-0.42152-.45,0.07767-.12115,1.85375,0.82154Zm5.84368,0.28681,0.43013-3.64253C63.3779,65.15087,63.17932,67.008,63.76965,68.18743Zm-2.11853,2.71372,0.07723-.0481c-0.69175-.91993-1.36876-1.85157-2.08551-2.75161a3.298,3.298,0,0,0-.74018-0.52942l-0.2397.29577ZM36.37963,86.10867l0.18178-.194a4.15341,4.15341,0,0,0-2.40975-2.227l-0.1424.15393Q35.19444,84.97514,36.37963,86.10867Zm-9.85468,2.07357c1.00957-2.3245,1.04471-2.56091.64236-3.60322Zm10.29725-3.43757-0.28293.20406c0.58785,0.64723.66727,1.73257,1.71765,1.98126l0.21533-.17859Zm47.43305-73.962,0.69317,1.101,0.76068-1.67114-0.21888-.22574ZM35.75907,86.3088l1.7081,2.11862,0.18608-.15427A2.39522,2.39522,0,0,0,35.75907,86.3088ZM23.79857,83.676l0.23882,0.07574L25.0698,81.6584l-0.28516-.13569Zm29.887-36.25179-0.242.01222a1.00881,1.00881,0,0,0-.02131.533,4.00143,4.00143,0,0,0,.75684.49649l0.13134-.20114ZM30.16167,84.26133l-0.12486-.04394v2.04553l0.12486-.00059v-2.001Z"/><path d="M47.18329,67.82866l-0.91922-.45431C45.3355,67.942,45.113,67.886,44.43872,66.69a1.94457,1.94457,0,0,0,2.01916.17363,2.902,2.902,0,0,1,.86357.74768Z"/><path d="M50.41921,68.63325a6.60591,6.60591,0,0,1,1.4301.61264c0.51,0.37418.93582,0.75674,1.59787,0.22847a0.77312,0.77312,0,0,1-1.17475.50514c-0.44594-.20626-0.93667-0.31915-1.37306-0.54119a3.16674,3.16674,0,0,1-.64156-0.59058Z"/></g><text x="0" y="115" fill="#000000" font-size="5px" font-weight="bold" font-family="'Helvetica Neue', Helvetica, Arial-Unicode, Arial, Sans-serif">Created by Tatyana</text><text x="0" y="120" fill="#000000" font-size="5px" font-weight="bold" font-family="'Helvetica Neue', Helvetica, Arial-Unicode, Arial, Sans-serif">from the Noun Project</text></svg>