<svg xmlns="http://www.w3.org/2000/svg" xmlns:xlink="http://www.w3.org/1999/xlink" version="1.1" x="0px" y="0px" viewBox="0 0 512 640" style="enable-background:new 0 0 512 512;" xml:space="preserve"><g><g><g><path d="M235.099,235.267c-1.953-1.953-1.953-5.119,0-7.071l67.175-67.175c1.953-1.952,5.118-1.952,7.071,0     c1.953,1.953,1.953,5.119,0,7.071l-67.175,67.175C240.217,237.22,237.052,237.22,235.099,235.267z"/></g><g><path d="M270.455,270.622c-1.953-1.953-1.953-5.119,0-7.071l67.175-67.175c1.953-1.952,5.119-1.951,7.071,0     c1.953,1.953,1.953,5.119,0,7.071l-67.175,67.175C275.572,272.575,272.408,272.575,270.455,270.622z"/></g><g><path d="M305.81,305.978c-1.953-1.952-1.953-5.118,0-7.07l31.82-31.821c1.953-1.952,5.118-1.952,7.071,0     c1.953,1.953,1.953,5.119,0,7.071l-31.82,31.82C310.928,307.931,307.763,307.931,305.81,305.978z"/></g><g><path d="M192.673,489.826L72.464,369.618c-1.951-1.952-1.952-5.118,0-7.07l21.464-21.464     c20.044-20.045,28.349-48.534,22.214-76.209l-15.455-69.721c-3.589-16.187,6.606-32.192,22.796-35.781     c16.149-3.581,32.202,6.647,35.781,22.796l9.281,41.87l98.372-98.373c11.697-11.696,30.729-11.697,42.427,0     c5.457,5.458,8.368,12.51,8.733,19.671c11.773-10.131,29.606-9.615,40.764,1.542c11.153,11.154,11.671,28.977,1.555,40.75     c7.429,0.377,14.36,3.449,19.658,8.748c11.723,11.724,11.726,30.701,0,42.426l-19.543,19.543     c15.74,0.859,28.33,13.877,28.33,29.955c0,8.014-3.121,15.547-8.787,21.213L199.744,489.826     C197.79,491.781,194.622,491.776,192.673,489.826z M83.071,366.082l113.137,113.137l176.776-176.776     c3.778-3.777,5.858-8.8,5.858-14.143c0-11.054-8.945-20-20-20c-5.342,0-10.364,2.08-14.142,5.858l0,0     c-1.953,1.952-5.118,1.952-7.071,0c-1.953-1.953-1.953-5.119,0-7.071l35.355-35.355c3.778-3.777,5.858-8.799,5.858-14.142     c0-11.054-8.945-20-20-20c-5.342,0-10.364,2.08-14.142,5.858l0,0c-1.953,1.952-5.118,1.952-7.071,0     c-1.953-1.953-1.953-5.119,0-7.071l14.142-14.142c7.798-7.798,7.798-20.486,0-28.284c-7.798-7.798-20.486-7.798-28.284,0     l-14.142,14.142c-1.953,1.952-5.118,1.952-7.071,0c-1.953-1.954-1.952-5.118,0-7.071c3.778-3.777,5.858-8.8,5.858-14.142     c0-11.054-8.945-20-20-20c-5.342,0-10.365,2.08-14.142,5.858L169.173,237.554c-2.78,2.781-7.563,1.401-8.417-2.454     l-11.253-50.768c-2.387-10.767-13.091-17.585-23.854-15.198c-10.791,2.392-17.59,13.061-15.198,23.854l15.455,69.721     c6.878,31.029-2.433,62.97-24.906,85.444L83.071,366.082z"/></g><g><path d="M399.51,328c-18.072,0-34.108-6.543-35.289-7.035c-2.548-1.064-3.751-3.992-2.688-6.54     c1.064-2.548,3.991-3.752,6.541-2.688c0.442,0.183,44.833,18.215,63.86-8.357c17.476-24.406,32.311-34.748,42.045-39.119     c-5.367-4.056-12.27-10.218-18.997-18.936c-12.559-16.273-26.912-44.986-23.972-89.366     c6.271-94.643-33.414-118.933-45.644-124.129c-3.494,5.841-11.503,16.933-26.652,27.344     C339.355,72.477,303.947,87.272,245.198,82.2c-0.533-0.046-50.97-3.993-77.685,27.496c14.963,7.669,53.43,31.285,55.166,72.065     c0.117,2.759-2.024,5.09-4.783,5.208c-2.753,0.112-5.09-2.023-5.208-4.783c-1.844-43.326-54.309-65.795-54.838-66.017     c-1.393-0.583-2.447-1.765-2.869-3.215s-0.166-3.013,0.696-4.252c28.795-41.394,87.891-36.687,90.391-36.464     c55.339,4.78,88.398-8.727,106.386-20.898c19.346-13.089,25.887-27.494,25.951-27.638c0.971-2.19,3.367-3.403,5.7-2.865     c0.69,0.159,17.078,4.109,32.214,23.342c19.659,24.98,27.959,62.811,24.671,112.442c-2.18,32.897,5.083,60.545,21.587,82.174     c12.315,16.14,25.486,22.729,25.617,22.794c2.099,1.031,3.208,3.382,2.663,5.656c-0.545,2.274-2.63,3.865-4.925,3.836     c-0.093,0.005-19.228,0.917-45.866,38.12C429.575,323.851,413.897,327.999,399.51,328z"/></g><g><path d="M426,431.29h-70c-2.761,0-5-2.238-5-5s2.239-5,5-5h70c2.761,0,5,2.238,5,5S428.761,431.29,426,431.29z"/></g><g><path d="M486,471.29H326c-2.761,0-5-2.238-5-5s2.239-5,5-5h160c2.761,0,5,2.238,5,5S488.761,471.29,486,471.29z"/></g><g><path d="M166,51.29H66c-2.761,0-5-2.239-5-5s2.239-5,5-5h100c2.761,0,5,2.239,5,5S168.761,51.29,166,51.29z"/></g><g><path d="M106,91.29H26c-2.761,0-5-2.239-5-5s2.239-5,5-5h80c2.761,0,5,2.239,5,5S108.761,91.29,106,91.29z"/></g></g></g><text x="0" y="527" fill="#000000" font-size="5px" font-weight="bold" font-family="'Helvetica Neue', Helvetica, Arial-Unicode, Arial, Sans-serif">Created by Icon Market</text><text x="0" y="532" fill="#000000" font-size="5px" font-weight="bold" font-family="'Helvetica Neue', Helvetica, Arial-Unicode, Arial, Sans-serif">from the Noun Project</text></svg>