<svg xmlns="http://www.w3.org/2000/svg" xmlns:xlink="http://www.w3.org/1999/xlink" version="1.1" x="0px" y="0px" viewBox="0 0 32 40" enable-background="new 0 0 32 32" xml:space="preserve"><g><path d="M26.34,28.62c0-0.02,0-0.04,0-0.06c0-2.92-2.24-5.43-5.17-5.9V2.39c0-0.53-0.45-0.97-1-0.97s-1,0.43-1,0.97v20.28   c-2.93,0.47-5.17,2.98-5.17,5.9c0,0.02,0,0.04,0,0.06c-0.38,0.13-0.66,0.49-0.66,0.91c0,0.53,0.45,0.97,1,0.97H26   c0.55,0,1-0.43,1-0.97C27,29.11,26.72,28.75,26.34,28.62z"/><path d="M14.03,10.81c0-0.53-0.45-0.97-1-0.97h-2.36V9.3h2.36c0.55,0,1-0.43,1-0.97c0-0.53-0.45-0.97-1-0.97h-2.36V6.83h2.36   c0.55,0,1-0.43,1-0.97c0-0.53-0.45-0.97-1-0.97h-2.36V4.36h2.36c0.55,0,1-0.43,1-0.97c0-0.53-0.45-0.97-1-0.97h-2.36V2.39   c0-0.53-0.45-0.97-1-0.97s-1,0.43-1,0.97L6,2.42c-0.55,0-1,0.43-1,0.97c0,0.53,0.45,0.97,1,0.97h2.67v0.54H6c-0.55,0-1,0.43-1,0.97   C5,6.4,5.45,6.83,6,6.83h2.67v0.53H6c-0.55,0-1,0.43-1,0.97C5,8.87,5.45,9.3,6,9.3h2.67v0.54H6c-0.55,0-1,0.43-1,0.97   c0,0.53,0.45,0.97,1,0.97h2.67v17.75c0,0.53,0.45,0.97,1,0.97s1-0.43,1-0.97V11.78h2.36C13.58,11.78,14.03,11.34,14.03,10.81z    M9.67,30.02v-0.48h0L9.67,30.02z"/></g><text x="0" y="47" fill="#000000" font-size="5px" font-weight="bold" font-family="'Helvetica Neue', Helvetica, Arial-Unicode, Arial, Sans-serif">Created by Sutrisno</text><text x="0" y="52" fill="#000000" font-size="5px" font-weight="bold" font-family="'Helvetica Neue', Helvetica, Arial-Unicode, Arial, Sans-serif">from the Noun Project</text></svg>